<svg id="eye" xmlns="http://www.w3.org/2000/svg" width="18" height="18" viewBox="0 0 18 18">
  <path id="Vector" d="M5.37,2.685A2.685,2.685,0,1,1,2.685,0,2.682,2.682,0,0,1,5.37,2.685Z" transform="translate(6.315 6.315)" fill="none" stroke="#181c35" stroke-linecap="round" stroke-linejoin="round" stroke-width="1.2"/>
  <path id="Vector-2" data-name="Vector" d="M7.339,12.413c2.647,0,5.115-1.56,6.832-4.26a3.994,3.994,0,0,0,0-3.893C12.454,1.56,9.986,0,7.339,0S2.224,1.56.506,4.26a3.994,3.994,0,0,0,0,3.893C2.224,10.852,4.691,12.413,7.339,12.413Z" transform="translate(1.661 2.79)" fill="none" stroke="#181c35" stroke-linecap="round" stroke-linejoin="round" stroke-width="1.2"/>
  <path id="Vector-3" data-name="Vector" d="M0,0H18V18H0Z" transform="translate(18 18) rotate(180)" fill="none" opacity="0"/>
</svg>
