<svg id="Group_4" data-name="Group 4" xmlns="http://www.w3.org/2000/svg" xmlns:xlink="http://www.w3.org/1999/xlink" width="19" height="19" viewBox="0 0 19 19">
  <defs>
    <clipPath id="clip-path">
      <rect id="Rectangle_11" data-name="Rectangle 11" width="19" height="19" fill="none"/>
    </clipPath>
  </defs>
  <g id="Group_3" data-name="Group 3" clip-path="url(#clip-path)">
    <path id="Path_11" data-name="Path 11" d="M8.7,0h.778q0,1.028.006,2.057,0,1.24,0,2.48V7.018q0,1.238-.006,2.475c-.061,0-.123.006-.184.006H0V8.757a1.417,1.417,0,0,0,.076-.441c.115-.083.235-.16.342-.252A.177.177,0,0,1,.687,8.06c.2.16.414.3.668.486-.1-.305-.17-.558-.259-.806a.166.166,0,0,1,.074-.229c.215-.148.422-.308.632-.463a5.382,5.382,0,0,0-.819-.032.153.153,0,0,1-.179-.134C.742,6.664.663,6.45.59,6.234a2.926,2.926,0,0,1,.335-.779,2.632,2.632,0,0,0,.431.306l-.233-.68A1.229,1.229,0,0,1,1.775,4.3c-.057-.055-.135,0-.176-.073A9.117,9.117,0,0,1,2.987,2.574a1.213,1.213,0,0,1,.383-.308,1.235,1.235,0,0,1-.075.3c-.026.14-.133.261-.095.415l-.006,0v.008c.208-.153.422-.3.623-.461a.181.181,0,0,1,.27,0c.2.159.417.3.668.484-.1-.3-.166-.549-.255-.79a.182.182,0,0,1,.088-.255c.212-.141.414-.3.666-.479-.147,0-.238.007-.327,0-.161-.015-.327.044-.483-.033A9.652,9.652,0,0,1,8.153.09,2.029,2.029,0,0,0,8.7,0M3.184,8.5a3.886,3.886,0,0,0,.635-.436.185.185,0,0,1,.269,0c.193.15.4.287.627.452A3.7,3.7,0,0,0,4.5,7.77.2.2,0,0,1,4.59,7.5C4.8,7.358,5,7.2,5.209,7.054A4.94,4.94,0,0,0,4.4,7.02a.164.164,0,0,1-.192-.144c-.074-.257-.164-.51-.26-.8-.091.282-.18.519-.241.763-.038.153-.113.189-.258.182-.248-.012-.5,0-.746,0a4.344,4.344,0,0,0,.619.485c.112.072.118.141.082.258a3.567,3.567,0,0,0-.216.74l-.024,0,.006.014L3.184,8.5m5.43-1.439L8.6,7.017c-.257,0-.515-.008-.772,0-.131.006-.181-.041-.216-.163-.07-.251-.159-.5-.254-.784-.094.293-.18.538-.249.787a.182.182,0,0,1-.218.159c-.26-.011-.52,0-.78,0a4.034,4.034,0,0,0,.488.395c.263.19.263.189.164.494q-.093.289-.186.579A4.189,4.189,0,0,0,7.23,8.06a.172.172,0,0,1,.254,0c.2.155.4.294.611.443a.256.256,0,0,0-.012-.2c-.062-.187-.118-.377-.183-.563a.157.157,0,0,1,.069-.215c.22-.147.431-.308.645-.463m0-5.53L8.6,1.487c-.22,0-.44-.014-.658,0s-.323-.036-.367-.262a6.043,6.043,0,0,0-.22-.685c-.1.3-.182.554-.258.813a.154.154,0,0,1-.18.132c-.268-.008-.537,0-.805,0a2.974,2.974,0,0,0,.537.426.27.27,0,0,1,.135.4,6.5,6.5,0,0,0-.208.644,4.386,4.386,0,0,0,.654-.427.174.174,0,0,1,.254,0c.208.162.425.311.675.491C8.069,2.723,8,2.47,7.906,2.222a.176.176,0,0,1,.077-.245c.215-.144.421-.3.631-.451M6.131,4.258,6.115,4.3c.2.147.4.3.609.438a.181.181,0,0,1,.089.254c-.091.245-.166.5-.267.8.244-.175.451-.312.644-.467a.221.221,0,0,1,.332-.005c.191.157.4.292.639.463C8.068,5.486,8,5.238,7.91,5a.182.182,0,0,1,.079-.258c.213-.139.414-.3.619-.446a4.872,4.872,0,0,0-.786-.032.174.174,0,0,1-.207-.15c-.072-.256-.163-.507-.26-.8-.094.295-.178.54-.249.788-.034.118-.084.17-.218.164-.252-.013-.505,0-.758,0M3.153,5.781l.555-.4c.251-.181.25-.181.508.006.167.121.336.241.545.391-.087-.27-.147-.5-.233-.712a.257.257,0,0,1,.12-.376c.2-.116.374-.265.56-.4l-.015-.035H4.585c-.322,0-.322,0-.422-.306-.065-.2-.13-.4-.21-.64-.083.26-.145.467-.216.671-.116.334-.025.269-.37.275-.217,0-.434,0-.65,0a4.023,4.023,0,0,0,.6.468.2.2,0,0,1,.091.288c-.087.235-.156.476-.25.768" fill="#0153b4"/>
    <path id="Path_12" data-name="Path 12" d="M0,191.437H9.3c.061,0,.123,0,.184-.006s.148.006.222.006h6.721q1.268,0,2.536,0l.039.041v.557c-.08.023-.071.089-.074.151a8.053,8.053,0,0,1-.3,1.745c-.055,0-.111-.006-.166-.006H.5c-.055,0-.111,0-.166.005a7.789,7.789,0,0,1-.261-1.337c-.005-.053-.015-.1-.074-.113Z" transform="translate(0 -181.938)" fill="#efefef"/>
    <path id="Path_13" data-name="Path 13" d="M192.59,0c.1.143.26.083.387.1a9.739,9.739,0,0,1,2.435.717,9.479,9.479,0,0,1,1.78,1.043c.067.049.152.087.175.181-.073,0-.147.012-.22.012h-5.588q0-1.028-.006-2.057Z" transform="translate(-182.072)" fill="#efefef"/>
    <path id="Path_14" data-name="Path 14" d="M200.7,141.506a8.919,8.919,0,0,1,.333,2.478q-1.268,0-2.536,0h-6.721c-.074,0-.148,0-.222-.006q0-1.238.006-2.475h9.14" transform="translate(-182.072 -134.489)" fill="#d70128"/>
    <path id="Path_15" data-name="Path 15" d="M200.819,93.741h-9.14V91.26H199.5c.08,0,.16-.007.239-.011a8.22,8.22,0,0,1,.7,1.358,6.947,6.947,0,0,1,.381,1.135" transform="translate(-182.191 -86.724)" fill="#efeeee"/>
    <path id="Path_16" data-name="Path 16" d="M199.742,43.7c-.08,0-.16.011-.24.011H191.68v-2.48h5.588c.073,0,.147-.008.22-.012a.4.4,0,0,1,.191.1,9.42,9.42,0,0,1,2.062,2.376" transform="translate(-182.192 -39.176)" fill="#d70228"/>
    <path id="Path_17" data-name="Path 17" d="M55.1,124.929a3.567,3.567,0,0,1,.216-.74c.037-.117.03-.186-.082-.258a4.343,4.343,0,0,1-.619-.485c.249,0,.5-.009.746,0,.146.007.22-.029.258-.182.061-.245.151-.482.241-.763.1.291.185.544.26.8a.164.164,0,0,0,.192.144,4.942,4.942,0,0,1,.808.034c-.206.149-.407.3-.619.443a.2.2,0,0,0-.087.273,3.7,3.7,0,0,1,.212.745c-.23-.165-.434-.3-.627-.452a.185.185,0,0,0-.269,0,3.883,3.883,0,0,1-.635.436Z" transform="translate(-51.908 -116.429)" fill="#eaebee"/>
    <path id="Path_18" data-name="Path 18" d="M125.987,123.472c-.214.155-.425.316-.645.463a.157.157,0,0,0-.069.215c.065.186.121.376.183.563a.257.257,0,0,1,.012.2c-.207-.149-.416-.288-.611-.443a.172.172,0,0,0-.254,0,4.2,4.2,0,0,1-.652.425c.062-.193.123-.386.186-.579.1-.3.1-.3-.164-.494a4.041,4.041,0,0,1-.488-.395c.26,0,.52-.008.78,0a.182.182,0,0,0,.218-.159c.069-.249.155-.494.249-.787.095.288.184.533.254.784.034.122.084.169.216.163.257-.012.515,0,.772,0l.014.039" transform="translate(-117.373 -116.416)" fill="#eaebee"/>
    <path id="Path_19" data-name="Path 19" d="M126.043,11.96c-.21.151-.416.307-.631.451a.176.176,0,0,0-.077.245c.089.248.163.5.256.794-.25-.181-.467-.33-.675-.491a.174.174,0,0,0-.254,0,4.385,4.385,0,0,1-.654.427,6.513,6.513,0,0,1,.208-.644.27.27,0,0,0-.135-.4,2.976,2.976,0,0,1-.537-.426c.268,0,.537-.005.805,0a.154.154,0,0,0,.18-.132c.076-.259.163-.514.258-.813a6.042,6.042,0,0,1,.22.685c.044.226.158.28.367.262s.439,0,.658,0l.009.04" transform="translate(-117.429 -10.433)" fill="#eaecee"/>
    <path id="Path_20" data-name="Path 20" d="M123.563,67.679c.253,0,.506-.009.758,0,.133.007.184-.046.218-.164.072-.249.155-.494.249-.788.1.295.188.545.26.8a.174.174,0,0,0,.207.15,4.883,4.883,0,0,1,.786.032c-.206.15-.407.307-.619.446a.182.182,0,0,0-.079.258c.087.242.159.49.252.783-.239-.171-.448-.305-.639-.463a.221.221,0,0,0-.332.005c-.193.155-.4.292-.644.467.1-.306.176-.556.267-.8a.181.181,0,0,0-.089-.254c-.209-.137-.407-.291-.609-.438l.016-.039" transform="translate(-117.432 -63.421)" fill="#ebedee"/>
    <path id="Path_21" data-name="Path 21" d="M55.319,69.239c.094-.292.164-.533.25-.768a.2.2,0,0,0-.091-.288,4.024,4.024,0,0,1-.6-.468c.217,0,.434,0,.65,0,.345-.006.254.059.37-.275.071-.2.133-.411.216-.671.08.244.146.442.21.64.1.306.1.306.422.306h.606l.015.035c-.186.135-.363.284-.56.4a.257.257,0,0,0-.12.376c.086.216.146.442.233.712-.209-.15-.378-.269-.545-.391-.257-.187-.257-.187-.508-.006l-.555.4" transform="translate(-52.166 -63.458)" fill="#ebecee"/>
    <path id="Path_22" data-name="Path 22" d="M1.542,127.794a8.029,8.029,0,0,1,.514-2.083c.073.216.152.429.216.648a.153.153,0,0,0,.179.134,5.366,5.366,0,0,1,.819.032c-.21.155-.418.314-.632.463a.166.166,0,0,0-.074.23c.089.247.162.5.259.806-.254-.183-.468-.325-.668-.486a.177.177,0,0,0-.268.005c-.107.092-.228.169-.342.252" transform="translate(-1.466 -119.477)" fill="#ecedee"/>
    <path id="Path_23" data-name="Path 23" d="M64.648,30a4.5,4.5,0,0,1,.771-.614c.1-.073.2-.138.3-.206.156.077.322.017.483.033.089.008.179,0,.327,0-.252.183-.454.338-.666.479a.182.182,0,0,0-.088.255c.089.241.16.489.255.79-.251-.18-.466-.325-.668-.484a.181.181,0,0,0-.27,0c-.2.162-.414.308-.623.461l.005,0c-.038-.154.069-.276.095-.415a1.234,1.234,0,0,0,.075-.3" transform="translate(-61.279 -27.73)" fill="#ebedee"/>
    <path id="Path_24" data-name="Path 24" d="M18.7,102.839a.534.534,0,0,1,.2-.374l.233.68a2.631,2.631,0,0,1-.432-.306" transform="translate(-17.771 -97.384)" fill="#eaebee"/>
    <path id="Path_25" data-name="Path 25" d="M64.511,60.019v-.008l.006,0-.005,0" transform="translate(-61.317 -57.035)" fill="#ebedee"/>
    <path id="Path_26" data-name="Path 26" d="M63.93,171.324l-.015.023-.006-.014.024,0,0,0" transform="translate(-60.746 -162.828)" fill="#eaebee"/>
    <path id="Path_27" data-name="Path 27" d="M25.052,241.635a8.6,8.6,0,0,1-1.074,2.48c-.055,0-.111-.006-.166-.006H8c-.055,0-.111,0-.166.005a8.638,8.638,0,0,1-1.073-2.48c.055,0,.111-.005.166-.005H24.886c.055,0,.111,0,.166.006" transform="translate(-6.423 -229.646)" fill="#d70128"/>
    <path id="Path_28" data-name="Path 28" d="M28.431,291.643c.055,0,.111-.005.166-.005H44.412c.055,0,.111,0,.166.006a7.012,7.012,0,0,1-.78,1.1,10.659,10.659,0,0,1-1.221,1.23.741.741,0,0,1-.2.133c-.037,0-.074,0-.111,0H30.743c-.037,0-.074,0-.111-.005a1.045,1.045,0,0,1-.363-.28,9.273,9.273,0,0,1-1.838-2.179" transform="translate(-27.024 -277.175)" fill="#efefef"/>
    <path id="Path_29" data-name="Path 29" d="M72.9,341.339c.037,0,.074.005.111.005H84.532c.037,0,.074,0,.111,0a4.877,4.877,0,0,1-1.017.73,9.327,9.327,0,0,1-6.092,1.26,9.227,9.227,0,0,1-4.507-1.863c-.048-.037-.1-.066-.131-.127" transform="translate(-69.288 -324.412)" fill="#d8032a"/>
  </g>
</svg>
