<svg xmlns="http://www.w3.org/2000/svg" width="64" height="64" viewBox="0 0 64 64">
  <g id="Group_371" data-name="Group 371" transform="translate(-35 -435)">
    <rect id="Rectangle_352" data-name="Rectangle 352" width="64" height="64" rx="32" transform="translate(35 435)" fill="#1abe6f"/>
    <path id="Path_349" data-name="Path 349" d="M31.791,3.2A2.977,2.977,0,0,0,28.661,0a3.461,3.461,0,0,0-2.439,1.215C21.641,5.814,17.038,10.391,12.469,15c-.61.614-.983.666-1.61.013Q8.154,12.188,5.325,9.481A3.143,3.143,0,0,0,.962,9.4a3.057,3.057,0,0,0-.176,4.268q4.322,4.476,8.806,8.793a2.966,2.966,0,0,0,4.264-.125Q22.4,13.845,30.9,5.307A2.749,2.749,0,0,0,31.791,3.2" transform="translate(51.025 456.853)" fill="#fff" stroke="#fff" stroke-width="0.5"/>
  </g>
</svg>
