<svg id="Group_2" data-name="Group 2" xmlns="http://www.w3.org/2000/svg" xmlns:xlink="http://www.w3.org/1999/xlink" width="185.085" height="54.904" viewBox="0 0 185.085 54.904">
  <defs>
    <clipPath id="clip-path">
      <rect id="Rectangle_6" data-name="Rectangle 6" width="185.085" height="54.904" fill="none"/>
    </clipPath>
  </defs>
  <g id="Group_1" data-name="Group 1" clip-path="url(#clip-path)">
    <path id="Path_1" data-name="Path 1" d="M38.346.041H34.228V2.1c0,11.128.024,22.257-.01,33.386-.018,6.2-2.063,11.327-8.176,13.9a17.744,17.744,0,0,1-12.9.291,12.318,12.318,0,0,1-8.345-9.253A22.359,22.359,0,0,1,4.228,35.2C4.179,24.128,4.2,13.05,4.2,1.974c0-.646-.056-1.291-.084-1.9h-4A6.285,6.285,0,0,0,.018.8c0,12.009-.048,24.017.018,36.025A17.1,17.1,0,0,0,6.363,50.565c4.333,3.568,9.434,4.621,14.851,4.178A18.308,18.308,0,0,0,33.734,49c3.432-3.729,4.693-8.158,4.692-13.078q0-17.082,0-34.162c0-.553-.047-1.106-.075-1.722" transform="translate(0 -0.019)" fill="#fff"/>
    <path id="Path_2" data-name="Path 2" d="M16.994,43.963a11.175,11.175,0,0,0,8.3,3.445,17.372,17.372,0,0,0,3.722-.433c5.206-1.142,8.323-5.325,8.335-11.19.017-7.826.011-19.136.005-28.118l0-5.791c0-.267-.024-.534-.047-.8l-.052-.7H33.019v2c0,2.716,0,5.8,0,9.052,0,8.279,0,18.043-.048,24.983a6.445,6.445,0,0,1-5.485,6.578c-4.076.7-7.366-.872-8.583-4.125a11.121,11.121,0,0,1-.524-3.687c-.033-7.178-.03-17.349-.026-25.989l0-8.827H14.146l-.077.522a2.413,2.413,0,0,0-.046.408l-.006,7.55c-.01,9.076-.02,19.741.024,27.4a10.646,10.646,0,0,0,2.953,7.719" transform="translate(-6.472 -0.168)" fill="#fff"/>
    <path id="Path_3" data-name="Path 3" d="M214.633,28.117a19.982,19.982,0,0,0-11.015,32.036,18.611,18.611,0,0,0,19.153,6.526,42.755,42.755,0,0,0,4.3-1.879l.237,2.094h4.109V56.244c-.276.433-.388.591-.483.759-2.637,4.289-9.229,7.742-16.409,5.708-10.468-2.966-14.409-15.363-8.155-24.3a15.661,15.661,0,0,1,28.412,8.269c.151,6.1.07,12.214.09,18.322,0,.607,0,1.214,0,1.9h4.213c0-6.548.01-12.96,0-19.372a19.986,19.986,0,0,0-24.452-19.406" transform="translate(-91.995 -12.755)" fill="#fff"/>
    <path id="Path_4" data-name="Path 4" d="M225.734,41.491h-.13a12.415,12.415,0,0,0-8.79,3.566,12.616,12.616,0,0,0-3.729,9.016,12.489,12.489,0,0,0,12.523,12.7h.065a12.643,12.643,0,0,0,.061-25.284m5.7,18.585a7.991,7.991,0,0,1-5.79,2.36,8.133,8.133,0,0,1-5.84-2.337,8.364,8.364,0,0,1-2.343-6.026,7.98,7.98,0,0,1,8.178-8.242h0a8,8,0,0,1,5.788,2.357,8.809,8.809,0,0,1,0,11.888" transform="translate(-98.435 -19.166)" fill="#fff"/>
    <path id="Path_5" data-name="Path 5" d="M137.805,14.847c-5.541-.2-8.518,1.519-8.518,1.519V.033h-4.169V25.959c.2-.391.232-.493.31-.622,2.12-5.082,9.037-7.566,15.905-5.785a15.7,15.7,0,0,1,11.781,14.973C153.478,46.248,140.963,54.3,130.485,49c-6.028-3.049-8.861-8.179-8.869-14.855-.014-10.713.04-21.426.066-32.139,0-.649,0-1.3,0-2.007h-4.049c-.032.421-.067.676-.068.93q-.043,17.234-.07,34.468a13.987,13.987,0,0,0,.213,2.624c1.45,7.614,5.726,13.029,13.05,15.618s14.068,1.168,19.959-3.969a19.8,19.8,0,0,0,5.451-21.784,20.293,20.293,0,0,0-18.362-13.04" transform="translate(-54.277)" fill="#fff"/>
    <path id="Path_6" data-name="Path 6" d="M143.733,66.528h.082a12.519,12.519,0,0,0,0-25.037h-.053A12.157,12.157,0,0,0,131.488,54a12.162,12.162,0,0,0,12.245,12.531M138.2,47.987a7.885,7.885,0,0,1,5.6-2.193h.091a8.215,8.215,0,0,1-.091,16.428h0a7.876,7.876,0,0,1-5.652-2.25,8.847,8.847,0,0,1,.054-11.987" transform="translate(-60.741 -19.167)" fill="#fff"/>
    <path id="Path_7" data-name="Path 7" d="M314.625,43.292a16.245,16.245,0,0,0-4.258-10.582c-5.266-5.829-15.6-6.192-21.56-2.8-5.4,3.076-7.661,8.065-7.88,13.932-.277,7.443-.128,14.9-.156,22.356a5.25,5.25,0,0,0,.119.774h4.065c0-.755-.005-1.415,0-2.074.061-6.985.012-13.974.231-20.953a12.135,12.135,0,0,1,4.169-9.358c3.659-3.051,10.624-3.572,15.018-1.251a10.305,10.305,0,0,1,4.465,4.593,19.571,19.571,0,0,1,1.77,8.886c.053,6.108.013,12.217.019,18.326,0,.6.051,1.2.081,1.859h3.9a1.788,1.788,0,0,0,.16-.429c-.025-7.762.095-15.53-.148-23.286" transform="translate(-129.697 -12.819)" fill="#fff"/>
    <path id="Path_8" data-name="Path 8" d="M305.05,42.4c-5.164-.521-8.7,1.832-9.962,6.623a17.931,17.931,0,0,0-.57,4.339c-.048,3.841-.039,9.926-.031,14.357,0,1.574.006,3.079.006,4.437v1.533h4.232V68.849c0-4.731-.006-11.082.013-15.169A19.6,19.6,0,0,1,299,50.594a4.528,4.528,0,0,1,4.456-4.084c3.014-.211,4.769.855,5.524,3.344a12.639,12.639,0,0,1,.474,3.509c.038,3.835.032,9.926.025,14.362l0,6.017h4.181v-.37c0-1.8.019-3.764.039-5.8.048-4.993.1-11.218-.1-15.418-.292-6.177-2.926-9.184-8.543-9.751" transform="translate(-136.036 -19.555)" fill="#fff"/>
    <path id="Path_9" data-name="Path 9" d="M94.394,32.474c.391-.029.779-.113,1.1-.162V28.176c-3.876.132-7.444.8-10.492,3.131-4.316,3.3-6.043,7.942-6.195,13.126-.209,7.13-.1,14.27-.116,21.405a8.975,8.975,0,0,0,.141,1.111h4.048c0-.8-.005-1.454,0-2.112.063-6.978-.036-13.962.239-20.931.272-6.9,4.434-10.923,11.27-11.432" transform="translate(-36.347 -13.016)" fill="#fff"/>
    <path id="Path_10" data-name="Path 10" d="M92.232,48.657a17.333,17.333,0,0,0-.684,4.731c-.058,3.887-.047,9.134-.037,13.764,0,1.626.007,3.171.007,4.543v1.845h4.5V71.369c0-1.536,0-3.273,0-5.1-.005-4.648-.011-9.917.061-13.847.049-2.685.828-4.259,2.527-5.1a7.941,7.941,0,0,1,1.832-.551c.321-.07.645-.142.966-.228l.336-.091V42.286l-.452,0c-4.668-.032-7.786,2.166-9.057,6.375" transform="translate(-42.27 -19.532)" fill="#fff"/>
  </g>
</svg>
